# xmcd
#
# Track frame offsets:
#	182
#	11172
#	27570
#	40382
#	56040
#	66620
#	79897
#	89830
#	102652
#	112410
#	123222
#	136425
#	149027
#	159927
#	169987
#	180545
#
# Disc length: 2544
#
# Revision: 1
# Processed by: cddbd v1.5.1PL0 Copyright (c) Steve Scherf et al.
# Submitted via: CdAid 2001.05.15.01
# Normalized: r0:DSETVAR1,TDELIM( - )
#
DISCID=fd09ee10
DTITLE=Various Artist - Kings And Queens Of Country
DYEAR=1900
DGENRE=
TTITLE0=Patsy Cline - Honky Tonk Merry Go Round
TTITLE1=Don Gibson - Green Green Grass Of Home
TTITLE2=Jo Anne Houston - Blue Blue Day
TTITLE3=Kenny Rogers - For The Good Times
TTITLE4=Billie Jo Spears - It Makes No Difference Now
TTITLE5=Faron Young - Apartment Number 9
TTITLE6=Lynn Anderson - Snowbird
TTITLE7=Don Williams - Coming Apart
TTITLE8=Skeeter Davis - Am I That Easy To Forget
TTITLE9=Johnny Russell - Act Naturally
TTITLE10=Wanda Jackson - Raining In My Heart
TTITLE11=Del Shannon - She Thinks I Still Care
TTITLE12=Dolly Parton - It Wasn't God Who Made Honky Tonk Angels
TTITLE13=Stonewall Jackson - Shake 'Em Up And Roll 'Em
TTITLE14=Anne Murray - Some Birds
TTITLE15=Johnny Paycheck - A.11
EXTD=
EXTT0=
EXTT1=
EXTT2=
EXTT3=
EXTT4=
EXTT5=
EXTT6=
EXTT7=
EXTT8=
EXTT9=
EXTT10=
EXTT11=
EXTT12=
EXTT13=
EXTT14=
EXTT15=
PLAYORDER=
